<svg width="1440" height="380" viewBox="0 0 1440 380" fill="none" xmlns="http://www.w3.org/2000/svg">
<mask id="mask0_506_4354" style="mask-type:luminance" maskUnits="userSpaceOnUse" x="0" y="0" width="1440" height="418">
<path d="M1440 0H0V417.594H1440V0Z" fill="white"/>
</mask>
<g mask="url(#mask0_506_4354)">
<g opacity="0.5">
<mask id="mask1_506_4354" style="mask-type:luminance" maskUnits="userSpaceOnUse" x="528" y="211" width="105" height="105">
<path d="M632.25 211.504H528.15V315.865H632.25V211.504Z" fill="white"/>
</mask>
<g mask="url(#mask1_506_4354)">
<path d="M632.25 263.684C632.25 292.481 608.925 315.865 580.2 315.865C551.475 315.865 528.15 292.481 528.15 263.684C528.15 234.887 551.475 211.504 580.2 211.504C608.925 211.504 632.25 234.887 632.25 263.684Z" fill="white"/>
</g>
</g>
<g opacity="0.5">
<mask id="mask2_506_4354" style="mask-type:luminance" maskUnits="userSpaceOnUse" x="449" y="193" width="105" height="105">
<path d="M553.426 193.083H449.326V297.444H553.426V193.083Z" fill="white"/>
</mask>
<g mask="url(#mask2_506_4354)">
<path d="M553.426 245.263C553.426 274.06 530.101 297.444 501.376 297.444C472.651 297.444 449.326 274.06 449.326 245.263C449.326 216.466 472.651 193.083 501.376 193.083C530.101 193.083 553.426 216.391 553.426 245.263Z" fill="white"/>
</g>
</g>
<g opacity="0.5">
<mask id="mask3_506_4354" style="mask-type:luminance" maskUnits="userSpaceOnUse" x="405" y="165" width="105" height="106">
<path d="M509.85 165.865H405.75V270.226H509.85V165.865Z" fill="white"/>
</mask>
<g mask="url(#mask3_506_4354)">
<path d="M509.85 218.045C509.85 246.842 486.525 270.226 457.8 270.226C429.075 270.226 405.75 246.842 405.75 218.045C405.75 189.248 429.075 165.865 457.8 165.865C486.525 165.865 509.85 189.173 509.85 218.045Z" fill="white"/>
</g>
</g>
<g opacity="0.5">
<mask id="mask4_506_4354" style="mask-type:luminance" maskUnits="userSpaceOnUse" x="379" y="216" width="105" height="105">
<path d="M483.827 216.015H379.727V320.376H483.827V216.015Z" fill="white"/>
</mask>
<g mask="url(#mask4_506_4354)">
<path d="M483.827 268.195C483.827 296.992 460.502 320.376 431.777 320.376C403.052 320.376 379.727 296.992 379.727 268.195C379.727 239.399 403.052 216.015 431.777 216.015C460.502 216.015 483.827 239.323 483.827 268.195Z" fill="white"/>
</g>
</g>
<g opacity="0.5">
<mask id="mask5_506_4354" style="mask-type:luminance" maskUnits="userSpaceOnUse" x="345" y="189" width="105" height="105">
<path d="M449.401 189.173H345.301V293.534H449.401V189.173Z" fill="white"/>
</mask>
<g mask="url(#mask5_506_4354)">
<path d="M449.327 241.278C449.327 270.075 426.002 293.459 397.277 293.459C368.552 293.459 345.227 270.075 345.227 241.278C345.227 212.481 368.552 189.098 397.277 189.098C426.002 189.098 449.327 212.481 449.327 241.278Z" fill="white"/>
</g>
</g>
<g opacity="0.5">
<mask id="mask6_506_4354" style="mask-type:luminance" maskUnits="userSpaceOnUse" x="229" y="161" width="81" height="82">
<path d="M309.901 161.88H229.426V242.556H309.901V161.88Z" fill="white"/>
</mask>
<g mask="url(#mask6_506_4354)">
<path d="M309.9 202.18C309.9 224.436 291.9 242.481 269.7 242.481C247.5 242.481 229.5 224.436 229.5 202.18C229.5 179.925 247.5 161.88 269.7 161.88C291.9 161.88 309.9 179.925 309.9 202.18Z" fill="white"/>
</g>
</g>
<g opacity="0.5">
<mask id="mask7_506_4354" style="mask-type:luminance" maskUnits="userSpaceOnUse" x="279" y="265" width="46" height="45">
<path d="M324.375 265.037H279.9V309.624H324.375V265.037Z" fill="white"/>
</mask>
<g mask="url(#mask7_506_4354)">
<path d="M324.375 287.368C324.375 299.699 314.4 309.624 302.175 309.624C289.95 309.624 279.975 299.624 279.975 287.368C279.975 275.112 289.95 265.112 302.175 265.112C314.4 265.112 324.375 275.037 324.375 287.368Z" fill="white"/>
</g>
</g>
<g opacity="0.5">
<mask id="mask8_506_4354" style="mask-type:luminance" maskUnits="userSpaceOnUse" x="115" y="260" width="81" height="81">
<path d="M195.526 260.301H115.051V340.977H195.526V260.301Z" fill="white"/>
</mask>
<g mask="url(#mask8_506_4354)">
<path d="M195.525 300.677C195.525 322.932 177.525 340.977 155.325 340.977C133.125 340.977 115.125 322.932 115.125 300.677C115.125 278.421 133.125 260.376 155.325 260.376C177.525 260.376 195.525 278.346 195.525 300.677Z" fill="white"/>
</g>
</g>
<g opacity="0.5">
<mask id="mask9_506_4354" style="mask-type:luminance" maskUnits="userSpaceOnUse" x="136" y="257" width="81" height="81">
<path d="M216.75 257.068H136.275V337.744H216.75V257.068Z" fill="white"/>
</mask>
<g mask="url(#mask9_506_4354)">
<path d="M216.75 297.368C216.75 319.624 198.75 337.669 176.55 337.669C154.35 337.669 136.35 319.624 136.35 297.368C136.35 275.113 154.35 257.068 176.55 257.068C198.75 257.068 216.75 275.113 216.75 297.368Z" fill="white"/>
</g>
</g>
<g opacity="0.5">
<mask id="mask10_506_4354" style="mask-type:luminance" maskUnits="userSpaceOnUse" x="233" y="238" width="82" height="82">
<path d="M314.1 238.647H233.625V319.323H314.1V238.647Z" fill="white"/>
</mask>
<g mask="url(#mask10_506_4354)">
<path d="M314.099 278.947C314.099 301.203 296.099 319.248 273.899 319.248C251.699 319.248 233.699 301.203 233.699 278.947C233.699 256.692 251.699 238.647 273.899 238.647C296.099 238.647 314.099 256.692 314.099 278.947Z" fill="white"/>
</g>
</g>
<g opacity="0.5">
<mask id="mask11_506_4354" style="mask-type:luminance" maskUnits="userSpaceOnUse" x="263" y="211" width="105" height="105">
<path d="M367.426 211.504H263.326V315.865H367.426V211.504Z" fill="white"/>
</mask>
<g mask="url(#mask11_506_4354)">
<path d="M367.426 263.684C367.426 292.481 344.101 315.865 315.376 315.865C286.651 315.865 263.326 292.481 263.326 263.684C263.326 234.887 286.651 211.504 315.376 211.504C344.101 211.504 367.426 234.887 367.426 263.684Z" fill="white"/>
</g>
</g>
<g opacity="0.5">
<mask id="mask12_506_4354" style="mask-type:luminance" maskUnits="userSpaceOnUse" x="513" y="166" width="158" height="158">
<path d="M670.95 166.541H513.9V323.985H670.95V166.541Z" fill="white"/>
</mask>
<g mask="url(#mask12_506_4354)">
<path d="M670.95 245.263C670.95 288.722 635.775 323.985 592.425 323.985C549.075 323.985 513.9 288.722 513.9 245.263C513.9 201.804 549 166.541 592.425 166.541C635.85 166.541 670.95 201.729 670.95 245.263Z" fill="white"/>
</g>
</g>
<g opacity="0.5">
<mask id="mask13_506_4354" style="mask-type:luminance" maskUnits="userSpaceOnUse" x="380" y="110" width="158" height="159">
<path d="M537.675 110.752H380.625V268.196H537.675V110.752Z" fill="white"/>
</mask>
<g mask="url(#mask13_506_4354)">
<path d="M537.675 189.474C537.675 232.932 502.5 268.196 459.15 268.196C415.8 268.196 380.625 232.932 380.625 189.474C380.625 146.015 415.8 110.752 459.15 110.752C502.5 110.752 537.675 145.94 537.675 189.474Z" fill="white"/>
</g>
</g>
<g opacity="0.5">
<mask id="mask14_506_4354" style="mask-type:luminance" maskUnits="userSpaceOnUse" x="1106" y="231" width="92" height="93">
<path d="M1197.9 231.88H1106.03V323.985H1197.9V231.88Z" fill="white"/>
</mask>
<g mask="url(#mask14_506_4354)">
<path d="M1197.9 277.895C1197.9 303.308 1177.35 323.91 1152 323.91C1126.65 323.91 1106.1 303.308 1106.1 277.895C1106.1 252.481 1126.65 231.88 1152 231.88C1177.35 231.88 1197.9 252.481 1197.9 277.895Z" fill="white"/>
</g>
</g>
<g opacity="0.5">
<mask id="mask15_506_4354" style="mask-type:luminance" maskUnits="userSpaceOnUse" x="1199" y="280" width="93" height="94">
<path d="M1291.5 280.902H1199.62V373.008H1291.5V280.902Z" fill="white"/>
</mask>
<g mask="url(#mask15_506_4354)">
<path d="M1291.5 326.992C1291.5 352.406 1270.95 373.007 1245.6 373.007C1220.25 373.007 1199.7 352.406 1199.7 326.992C1199.7 301.579 1220.25 280.977 1245.6 280.977C1270.95 280.977 1291.5 301.579 1291.5 326.992Z" fill="white"/>
</g>
</g>
<g opacity="0.5">
<mask id="mask16_506_4354" style="mask-type:luminance" maskUnits="userSpaceOnUse" x="165" y="186" width="105" height="105">
<path d="M269.176 186.241H165.076V290.601H269.176V186.241Z" fill="white"/>
</mask>
<g mask="url(#mask16_506_4354)">
<path d="M269.102 238.346C269.102 267.143 245.777 290.526 217.052 290.526C188.327 290.526 165.002 267.143 165.002 238.346C165.002 209.549 188.327 186.166 217.052 186.166C245.777 186.166 269.102 209.549 269.102 238.346Z" fill="white"/>
</g>
</g>
<g opacity="0.5">
<mask id="mask17_506_4354" style="mask-type:luminance" maskUnits="userSpaceOnUse" x="89" y="226" width="106" height="106">
<path d="M194.026 226.767H89.9258V331.128H194.026V226.767Z" fill="white"/>
</mask>
<g mask="url(#mask17_506_4354)">
<path d="M194.026 278.947C194.026 307.744 170.701 331.128 141.976 331.128C113.251 331.128 89.9258 307.744 89.9258 278.947C89.9258 250.15 113.251 226.767 141.976 226.767C170.701 226.767 194.026 250.15 194.026 278.947Z" fill="white"/>
</g>
</g>
<g opacity="0.5">
<mask id="mask18_506_4354" style="mask-type:luminance" maskUnits="userSpaceOnUse" x="61" y="179" width="105" height="106">
<path d="M165.827 179.699H61.7266V284.06H165.827V179.699Z" fill="white"/>
</mask>
<g mask="url(#mask18_506_4354)">
<path d="M165.827 231.879C165.827 260.676 142.502 284.06 113.777 284.06C85.0516 284.06 61.7266 260.676 61.7266 231.879C61.7266 203.082 85.0516 179.699 113.777 179.699C142.502 179.699 165.827 203.007 165.827 231.879Z" fill="white"/>
</g>
</g>
<g opacity="0.5">
<path d="M119.401 258.421C119.401 287.218 96.0758 310.602 67.3508 310.602C38.6258 310.602 15.3008 287.218 15.3008 258.421C15.3008 229.624 38.6258 206.241 67.3508 206.241C96.0758 206.241 119.401 229.549 119.401 258.421Z" fill="white"/>
</g>
<g opacity="0.5">
<mask id="mask19_506_4354" style="mask-type:luminance" maskUnits="userSpaceOnUse" x="-20" y="245" width="105" height="105">
<path d="M84.225 245.263H-19.875V349.624H84.225V245.263Z" fill="white"/>
</mask>
<g mask="url(#mask19_506_4354)">
<path d="M84.1508 297.369C84.1508 326.166 60.8258 349.549 32.1008 349.549C3.37578 349.549 -19.9492 326.166 -19.9492 297.369C-19.9492 268.572 3.37578 245.188 32.1008 245.188C60.8258 245.188 84.1508 268.572 84.1508 297.369Z" fill="white"/>
</g>
</g>
<g opacity="0.5">
<mask id="mask20_506_4354" style="mask-type:luminance" maskUnits="userSpaceOnUse" x="37" y="245" width="105" height="105">
<path d="M141.975 245.263H37.875V349.624H141.975V245.263Z" fill="white"/>
</mask>
<g mask="url(#mask20_506_4354)">
<path d="M141.975 297.369C141.975 326.166 118.65 349.549 89.925 349.549C61.2 349.549 37.875 326.166 37.875 297.369C37.875 268.572 61.2 245.188 89.925 245.188C118.65 245.188 141.975 268.572 141.975 297.369Z" fill="white"/>
</g>
</g>
<g opacity="0.5">
<mask id="mask21_506_4354" style="mask-type:luminance" maskUnits="userSpaceOnUse" x="768" y="146" width="105" height="105">
<path d="M872.702 146.541H768.602V250.902H872.702V146.541Z" fill="white"/>
</mask>
<g mask="url(#mask21_506_4354)">
<path d="M872.702 198.722C872.702 227.519 849.376 250.902 820.651 250.902C791.926 250.902 768.602 227.519 768.602 198.722C768.602 169.925 791.926 146.541 820.651 146.541C849.376 146.541 872.702 169.925 872.702 198.722Z" fill="white"/>
</g>
</g>
<g opacity="0.5">
<mask id="mask22_506_4354" style="mask-type:luminance" maskUnits="userSpaceOnUse" x="734" y="206" width="106" height="105">
<path d="M839.026 206.241H734.926V310.602H839.026V206.241Z" fill="white"/>
</mask>
<g mask="url(#mask22_506_4354)">
<path d="M839.026 258.421C839.026 287.218 815.701 310.602 786.976 310.602C758.251 310.602 734.926 287.218 734.926 258.421C734.926 229.624 758.251 206.241 786.976 206.241C815.701 206.241 839.026 229.549 839.026 258.421Z" fill="white"/>
</g>
</g>
<g opacity="0.5">
<mask id="mask23_506_4354" style="mask-type:luminance" maskUnits="userSpaceOnUse" x="779" y="245" width="105" height="105">
<path d="M883.5 245.263H779.4V349.624H883.5V245.263Z" fill="white"/>
</mask>
<g mask="url(#mask23_506_4354)">
<path d="M883.5 297.368C883.5 326.165 860.175 349.549 831.45 349.549C802.725 349.549 779.4 326.165 779.4 297.368C779.4 268.571 802.725 245.188 831.45 245.188C860.175 245.188 883.5 268.571 883.5 297.368Z" fill="white"/>
</g>
</g>
<g opacity="0.5">
<mask id="mask24_506_4354" style="mask-type:luminance" maskUnits="userSpaceOnUse" x="831" y="186" width="105" height="105">
<path d="M935.551 186.241H831.451V290.601H935.551V186.241Z" fill="white"/>
</mask>
<g mask="url(#mask24_506_4354)">
<path d="M935.551 238.346C935.551 267.143 912.226 290.526 883.501 290.526C854.776 290.526 831.451 267.143 831.451 238.346C831.451 209.549 854.776 186.166 883.501 186.166C912.226 186.166 935.551 209.549 935.551 238.346Z" fill="white"/>
</g>
</g>
<g opacity="0.5">
<mask id="mask25_506_4354" style="mask-type:luminance" maskUnits="userSpaceOnUse" x="865" y="211" width="105" height="105">
<path d="M969.225 211.504H865.125V315.865H969.225V211.504Z" fill="white"/>
</mask>
<g mask="url(#mask25_506_4354)">
<path d="M969.225 263.684C969.225 292.481 945.9 315.865 917.175 315.865C888.45 315.865 865.125 292.481 865.125 263.684C865.125 234.887 888.45 211.504 917.175 211.504C945.9 211.504 969.225 234.887 969.225 263.684Z" fill="white"/>
</g>
</g>
<g opacity="0.5">
<mask id="mask26_506_4354" style="mask-type:luminance" maskUnits="userSpaceOnUse" x="955" y="192" width="79" height="79">
<path d="M1033.73 192.782H955.727V270.977H1033.73V192.782Z" fill="white"/>
</mask>
<g mask="url(#mask26_506_4354)">
<path d="M1033.73 231.88C1033.73 253.459 1016.25 270.977 994.727 270.977C973.202 270.977 955.727 253.459 955.727 231.88C955.727 210.301 973.202 192.782 994.727 192.782C1016.25 192.782 1033.73 210.226 1033.73 231.88Z" fill="white"/>
</g>
</g>
<g opacity="0.5">
<path d="M1142.78 290.526C1142.78 319.323 1119.45 342.707 1090.73 342.707C1062 342.707 1038.68 319.323 1038.68 290.526C1038.68 261.729 1062 238.346 1090.73 238.346C1119.45 238.346 1142.78 261.729 1142.78 290.526Z" fill="white"/>
</g>
<g opacity="0.5">
<mask id="mask27_506_4354" style="mask-type:luminance" maskUnits="userSpaceOnUse" x="1121" y="189" width="105" height="105">
<path d="M1225.58 189.173H1121.48V293.534H1225.58V189.173Z" fill="white"/>
</mask>
<g mask="url(#mask27_506_4354)">
<path d="M1225.58 241.278C1225.58 270.075 1202.25 293.459 1173.53 293.459C1144.8 293.459 1121.48 270.075 1121.48 241.278C1121.48 212.481 1144.8 189.098 1173.53 189.098C1202.25 189.098 1225.58 212.481 1225.58 241.278Z" fill="white"/>
</g>
</g>
<g opacity="0.5">
<mask id="mask28_506_4354" style="mask-type:luminance" maskUnits="userSpaceOnUse" x="1167" y="227" width="121" height="120">
<path d="M1287.3 227.218H1167.82V346.992H1287.3V227.218Z" fill="white"/>
</mask>
<g mask="url(#mask28_506_4354)">
<path d="M1287.3 287.068C1287.3 320.15 1260.52 346.917 1227.52 346.917C1194.52 346.917 1167.75 320.075 1167.75 287.068C1167.75 254.06 1194.52 227.218 1227.52 227.218C1260.52 227.218 1287.3 253.985 1287.3 287.068Z" fill="white"/>
</g>
</g>
<g opacity="0.5">
<mask id="mask29_506_4354" style="mask-type:luminance" maskUnits="userSpaceOnUse" x="1014" y="265" width="105" height="105">
<path d="M1118.78 265.639H1014.68V370H1118.78V265.639Z" fill="white"/>
</mask>
<g mask="url(#mask29_506_4354)">
<path d="M1118.78 317.82C1118.78 346.617 1095.45 370 1066.73 370C1038 370 1014.68 346.617 1014.68 317.82C1014.68 289.023 1038 265.639 1066.73 265.639C1095.45 265.639 1118.78 289.023 1118.78 317.82Z" fill="white"/>
</g>
</g>
<g opacity="0.5">
<mask id="mask30_506_4354" style="mask-type:luminance" maskUnits="userSpaceOnUse" x="1227" y="140" width="105" height="106">
<path d="M1331.48 140.902H1227.38V245.263H1331.48V140.902Z" fill="white"/>
</mask>
<g mask="url(#mask30_506_4354)">
<path d="M1331.48 193.083C1331.48 221.88 1308.15 245.263 1279.43 245.263C1250.7 245.263 1227.38 221.88 1227.38 193.083C1227.38 164.286 1250.7 140.902 1279.43 140.902C1308.15 140.902 1331.48 164.211 1331.48 193.083Z" fill="white"/>
</g>
</g>
<g opacity="0.5">
<mask id="mask31_506_4354" style="mask-type:luminance" maskUnits="userSpaceOnUse" x="1279" y="189" width="105" height="105">
<path d="M1383.53 189.173H1279.43V293.534H1383.53V189.173Z" fill="white"/>
</mask>
<g mask="url(#mask31_506_4354)">
<path d="M1383.53 241.278C1383.53 270.075 1360.2 293.459 1331.48 293.459C1302.75 293.459 1279.43 270.075 1279.43 241.278C1279.43 212.481 1302.75 189.098 1331.48 189.098C1360.2 189.098 1383.53 212.481 1383.53 241.278Z" fill="white"/>
</g>
</g>
<g opacity="0.5">
<mask id="mask32_506_4354" style="mask-type:luminance" maskUnits="userSpaceOnUse" x="1362" y="174" width="105" height="105">
<path d="M1466.85 174.587H1362.75V278.948H1466.85V174.587Z" fill="white"/>
</mask>
<g mask="url(#mask32_506_4354)">
<path d="M1466.85 226.767C1466.85 255.564 1443.53 278.948 1414.8 278.948C1386.08 278.948 1362.75 255.564 1362.75 226.767C1362.75 197.97 1386.08 174.587 1414.8 174.587C1443.53 174.587 1466.85 197.97 1466.85 226.767Z" fill="white"/>
</g>
</g>
<g opacity="0.5">
<mask id="mask33_506_4354" style="mask-type:luminance" maskUnits="userSpaceOnUse" x="1326" y="211" width="105" height="105">
<path d="M1430.1 211.504H1326V315.865H1430.1V211.504Z" fill="white"/>
</mask>
<g mask="url(#mask33_506_4354)">
<path d="M1430.1 263.684C1430.1 292.481 1406.78 315.865 1378.05 315.865C1349.33 315.865 1326 292.481 1326 263.684C1326 234.887 1349.33 211.504 1378.05 211.504C1406.78 211.504 1430.1 234.887 1430.1 263.684Z" fill="white"/>
</g>
</g>
<g opacity="0.5">
<mask id="mask34_506_4354" style="mask-type:luminance" maskUnits="userSpaceOnUse" x="1218" y="186" width="105" height="105">
<path d="M1322.48 186.241H1218.38V290.602H1322.48V186.241Z" fill="white"/>
</mask>
<g mask="url(#mask34_506_4354)">
<path d="M1322.48 238.346C1322.48 267.143 1299.15 290.527 1270.43 290.527C1241.7 290.527 1218.38 267.143 1218.38 238.346C1218.38 209.549 1241.7 186.166 1270.43 186.166C1299.15 186.166 1322.48 209.549 1322.48 238.346Z" fill="white"/>
</g>
</g>
<g opacity="0.5">
<mask id="mask35_506_4354" style="mask-type:luminance" maskUnits="userSpaceOnUse" x="987" y="202" width="126" height="126">
<path d="M1112.48 202.256H987.602V327.444H1112.48V202.256Z" fill="white"/>
</mask>
<g mask="url(#mask35_506_4354)">
<path d="M1112.48 264.812C1112.48 299.399 1084.5 327.444 1050 327.444C1015.5 327.444 987.527 299.399 987.527 264.812C987.527 230.226 1015.5 202.181 1050 202.181C1084.5 202.181 1112.48 230.226 1112.48 264.812Z" fill="white"/>
</g>
</g>
<g opacity="0.5">
<mask id="mask36_506_4354" style="mask-type:luminance" maskUnits="userSpaceOnUse" x="926" y="221" width="126" height="126">
<path d="M1051.8 221.654H926.926V346.842H1051.8V221.654Z" fill="white"/>
</mask>
<g mask="url(#mask36_506_4354)">
<path d="M1051.8 284.211C1051.8 318.797 1023.83 346.842 989.327 346.842C954.827 346.842 926.852 318.797 926.852 284.211C926.852 249.624 954.827 221.579 989.327 221.579C1023.83 221.579 1051.8 249.699 1051.8 284.211Z" fill="white"/>
</g>
</g>
<g opacity="0.5">
<mask id="mask37_506_4354" style="mask-type:luminance" maskUnits="userSpaceOnUse" x="886" y="136" width="105" height="106">
<path d="M990.901 136.992H886.801V241.353H990.901V136.992Z" fill="white"/>
</mask>
<g mask="url(#mask37_506_4354)">
<path d="M990.901 189.173C990.901 217.97 967.576 241.353 938.851 241.353C910.126 241.353 886.801 217.97 886.801 189.173C886.801 160.376 910.126 136.992 938.851 136.992C967.576 136.992 990.901 160.301 990.901 189.173Z" fill="white"/>
</g>
</g>
<g opacity="0.5">
<mask id="mask38_506_4354" style="mask-type:luminance" maskUnits="userSpaceOnUse" x="749" y="216" width="154" height="155">
<path d="M902.626 216.616H749.326V370.301H902.626V216.616Z" fill="white"/>
</mask>
<g mask="url(#mask38_506_4354)">
<path d="M902.552 293.459C902.552 335.865 868.202 370.301 825.902 370.301C783.602 370.301 749.252 335.865 749.252 293.459C749.252 251.053 783.602 216.616 825.902 216.616C868.202 216.616 902.552 251.053 902.552 293.459Z" fill="white"/>
</g>
</g>
<g opacity="0.5">
<mask id="mask39_506_4354" style="mask-type:luminance" maskUnits="userSpaceOnUse" x="332" y="239" width="155" height="154">
<path d="M486.001 239.023H332.701V392.707H486.001V239.023Z" fill="white"/>
</mask>
<g mask="url(#mask39_506_4354)">
<path d="M486.001 315.865C486.001 358.271 451.651 392.707 409.351 392.707C367.051 392.707 332.701 358.271 332.701 315.865C332.701 273.459 367.051 239.023 409.351 239.023C451.651 239.023 486.001 273.384 486.001 315.865Z" fill="white"/>
</g>
</g>
<g opacity="0.5">
<mask id="mask40_506_4354" style="mask-type:luminance" maskUnits="userSpaceOnUse" x="883" y="248" width="74" height="75">
<path d="M956.85 248.496H883.5V322.03H956.85V248.496Z" fill="white"/>
</mask>
<g mask="url(#mask40_506_4354)">
<path d="M956.85 285.263C956.85 305.564 940.425 322.03 920.175 322.03C899.925 322.03 883.5 305.564 883.5 285.263C883.5 264.963 899.925 248.496 920.175 248.496C940.425 248.496 956.85 264.963 956.85 285.263Z" fill="white"/>
</g>
</g>
<g opacity="0.5">
<mask id="mask41_506_4354" style="mask-type:luminance" maskUnits="userSpaceOnUse" x="909" y="218" width="105" height="105">
<path d="M1013.18 218.045H909.076V322.406H1013.18V218.045Z" fill="white"/>
</mask>
<g mask="url(#mask41_506_4354)">
<path d="M1013.18 270.151C1013.18 298.948 989.851 322.331 961.126 322.331C932.401 322.331 909.076 298.948 909.076 270.151C909.076 241.354 932.401 217.97 961.126 217.97C989.851 217.97 1013.18 241.354 1013.18 270.151Z" fill="white"/>
</g>
</g>
<g opacity="0.5">
<mask id="mask42_506_4354" style="mask-type:luminance" maskUnits="userSpaceOnUse" x="763" y="165" width="105" height="106">
<path d="M867.151 165.865H763.051V270.226H867.151V165.865Z" fill="white"/>
</mask>
<g mask="url(#mask42_506_4354)">
<path d="M867.151 218.045C867.151 246.842 843.826 270.226 815.101 270.226C786.376 270.226 763.051 246.842 763.051 218.045C763.051 189.248 786.376 165.865 815.101 165.865C843.826 165.865 867.151 189.173 867.151 218.045Z" fill="white"/>
</g>
</g>
<g opacity="0.5">
<mask id="mask43_506_4354" style="mask-type:luminance" maskUnits="userSpaceOnUse" x="707" y="202" width="105" height="105">
<path d="M811.577 202.256H707.477V306.617H811.577V202.256Z" fill="white"/>
</mask>
<g mask="url(#mask43_506_4354)">
<path d="M811.577 254.361C811.577 283.158 788.252 306.542 759.527 306.542C730.802 306.542 707.477 283.158 707.477 254.361C707.477 225.564 730.802 202.181 759.527 202.181C788.252 202.181 811.577 225.564 811.577 254.361Z" fill="white"/>
</g>
</g>
<g opacity="0.5">
<mask id="mask44_506_4354" style="mask-type:luminance" maskUnits="userSpaceOnUse" x="491" y="102" width="105" height="105">
<path d="M595.276 102.105H491.176V206.466H595.276V102.105Z" fill="white"/>
</mask>
<g mask="url(#mask44_506_4354)">
<path d="M595.276 154.286C595.276 183.083 571.951 206.466 543.226 206.466C514.501 206.466 491.176 183.083 491.176 154.286C491.176 125.489 514.501 102.105 543.226 102.105C571.951 102.105 595.276 125.489 595.276 154.286Z" fill="white"/>
</g>
</g>
<g opacity="0.5">
<mask id="mask45_506_4354" style="mask-type:luminance" maskUnits="userSpaceOnUse" x="477" y="150" width="105" height="105">
<path d="M581.625 150.075H477.525V254.436H581.625V150.075Z" fill="white"/>
</mask>
<g mask="url(#mask45_506_4354)">
<path d="M581.625 202.18C581.625 230.977 558.3 254.361 529.575 254.361C500.85 254.361 477.525 230.977 477.525 202.18C477.525 173.383 500.85 150 529.575 150C558.3 150 581.625 173.383 581.625 202.18Z" fill="white"/>
</g>
</g>
<g opacity="0.5">
<mask id="mask46_506_4354" style="mask-type:luminance" maskUnits="userSpaceOnUse" x="455" y="206" width="105" height="105">
<path d="M559.35 206.241H455.25V310.601H559.35V206.241Z" fill="white"/>
</mask>
<g mask="url(#mask46_506_4354)">
<path d="M559.35 258.421C559.35 287.218 536.025 310.601 507.3 310.601C478.575 310.601 455.25 287.218 455.25 258.421C455.25 229.624 478.575 206.241 507.3 206.241C536.025 206.241 559.35 229.549 559.35 258.421Z" fill="white"/>
</g>
</g>
<g opacity="0.5">
<mask id="mask47_506_4354" style="mask-type:luminance" maskUnits="userSpaceOnUse" x="327" y="226" width="105" height="106">
<path d="M431.776 226.767H327.676V331.128H431.776V226.767Z" fill="white"/>
</mask>
<g mask="url(#mask47_506_4354)">
<path d="M431.776 278.947C431.776 307.744 408.451 331.128 379.726 331.128C351.001 331.128 327.676 307.744 327.676 278.947C327.676 250.15 351.001 226.767 379.726 226.767C408.451 226.767 431.776 250.15 431.776 278.947Z" fill="white"/>
</g>
</g>
<g opacity="0.5">
<mask id="mask48_506_4354" style="mask-type:luminance" maskUnits="userSpaceOnUse" x="243" y="206" width="105" height="105">
<path d="M347.702 206.241H243.602V310.602H347.702V206.241Z" fill="white"/>
</mask>
<g mask="url(#mask48_506_4354)">
<path d="M347.702 258.421C347.702 287.218 324.377 310.602 295.652 310.602C266.927 310.602 243.602 287.218 243.602 258.421C243.602 229.624 266.927 206.241 295.652 206.241C324.377 206.241 347.702 229.549 347.702 258.421Z" fill="white"/>
</g>
</g>
<g opacity="0.5">
<mask id="mask49_506_4354" style="mask-type:luminance" maskUnits="userSpaceOnUse" x="191" y="226" width="105" height="106">
<path d="M295.651 226.767H191.551V331.128H295.651V226.767Z" fill="white"/>
</mask>
<g mask="url(#mask49_506_4354)">
<path d="M295.651 278.947C295.651 307.744 272.326 331.128 243.601 331.128C214.876 331.128 191.551 307.744 191.551 278.947C191.551 250.15 214.876 226.767 243.601 226.767C272.326 226.767 295.651 250.15 295.651 278.947Z" fill="white"/>
</g>
</g>
<g opacity="0.5">
<mask id="mask50_506_4354" style="mask-type:luminance" maskUnits="userSpaceOnUse" x="347" y="157" width="46" height="45">
<path d="M392.176 157.368H347.701V201.955H392.176V157.368Z" fill="white"/>
</mask>
<g mask="url(#mask50_506_4354)">
<path d="M392.175 179.699C392.175 192.03 382.2 201.955 369.975 201.955C357.75 201.955 347.775 191.955 347.775 179.699C347.775 167.443 357.75 157.443 369.975 157.443C382.2 157.443 392.175 167.368 392.175 179.699Z" fill="white"/>
</g>
</g>
<g opacity="0.5">
<mask id="mask51_506_4354" style="mask-type:luminance" maskUnits="userSpaceOnUse" x="87" y="268" width="46" height="46">
<path d="M132.452 268.797H87.9766V313.383H132.452V268.797Z" fill="white"/>
</mask>
<g mask="url(#mask51_506_4354)">
<path d="M132.451 291.053C132.451 303.383 122.476 313.308 110.251 313.308C98.0258 313.308 88.0508 303.308 88.0508 291.053C88.0508 278.797 98.0258 268.797 110.251 268.797C122.476 268.797 132.451 278.797 132.451 291.053Z" fill="white"/>
</g>
</g>
<g opacity="0.5">
<mask id="mask52_506_4354" style="mask-type:luminance" maskUnits="userSpaceOnUse" x="27" y="179" width="36" height="37">
<path d="M62.8508 179.699H27.3008V215.338H62.8508V179.699Z" fill="white"/>
</mask>
<g mask="url(#mask52_506_4354)">
<path d="M62.925 197.519C62.925 207.368 54.975 215.338 45.15 215.338C35.325 215.338 27.375 207.368 27.375 197.519C27.375 187.669 35.25 179.699 45.15 179.699C55.05 179.699 62.925 187.669 62.925 197.519Z" fill="white"/>
</g>
</g>
<g opacity="0.5">
<mask id="mask53_506_4354" style="mask-type:luminance" maskUnits="userSpaceOnUse" x="1081" y="215" width="37" height="36">
<path d="M1117.12 215.188H1081.57V250.827H1117.12V215.188Z" fill="white"/>
</mask>
<g mask="url(#mask53_506_4354)">
<path d="M1117.12 233.007C1117.12 242.857 1109.17 250.827 1099.35 250.827C1089.52 250.827 1081.57 242.857 1081.57 233.007C1081.57 223.158 1089.52 215.188 1099.35 215.188C1109.17 215.188 1117.12 223.158 1117.12 233.007Z" fill="white"/>
</g>
</g>
<g opacity="0.5">
<mask id="mask54_506_4354" style="mask-type:luminance" maskUnits="userSpaceOnUse" x="969" y="165" width="37" height="37">
<path d="M1005.37 165.865H969.824V201.504H1005.37V165.865Z" fill="white"/>
</mask>
<g mask="url(#mask54_506_4354)">
<path d="M1005.37 183.684C1005.37 193.534 997.424 201.504 987.599 201.504C977.774 201.504 969.824 193.534 969.824 183.684C969.824 173.834 977.774 165.865 987.599 165.865C997.424 165.865 1005.37 173.834 1005.37 183.684Z" fill="white"/>
</g>
</g>
<g opacity="0.5">
<mask id="mask55_506_4354" style="mask-type:luminance" maskUnits="userSpaceOnUse" x="749" y="126" width="37" height="37">
<path d="M785.402 126.917H749.852V162.556H785.402V126.917Z" fill="white"/>
</mask>
<g mask="url(#mask55_506_4354)">
<path d="M785.402 144.737C785.402 154.586 777.452 162.556 767.627 162.556C757.802 162.556 749.852 154.586 749.852 144.737C749.852 134.887 757.802 126.917 767.627 126.917C777.452 126.917 785.402 134.887 785.402 144.737Z" fill="white"/>
</g>
</g>
<g opacity="0.5">
<mask id="mask56_506_4354" style="mask-type:luminance" maskUnits="userSpaceOnUse" x="1322" y="169" width="29" height="29">
<path d="M1350.45 169.624H1322.48V197.669H1350.45V169.624Z" fill="white"/>
</mask>
<g mask="url(#mask56_506_4354)">
<path d="M1350.45 183.684C1350.45 191.429 1344.15 197.744 1336.43 197.744C1328.7 197.744 1322.4 191.429 1322.4 183.684C1322.4 175.94 1328.7 169.624 1336.43 169.624C1344.15 169.624 1350.45 175.94 1350.45 183.684Z" fill="white"/>
</g>
</g>
<g opacity="0.5">
<mask id="mask57_506_4354" style="mask-type:luminance" maskUnits="userSpaceOnUse" x="1220" y="189" width="21" height="21">
<path d="M1240.05 189.925H1220.78V209.248H1240.05V189.925Z" fill="white"/>
</mask>
<g mask="url(#mask57_506_4354)">
<path d="M1240.05 199.624C1240.05 204.962 1235.7 209.323 1230.45 209.323C1225.2 209.323 1220.85 204.962 1220.85 199.624C1220.85 194.286 1225.2 190 1230.45 190C1235.7 190 1240.05 194.286 1240.05 199.624Z" fill="white"/>
</g>
</g>
<g opacity="0.5">
<mask id="mask58_506_4354" style="mask-type:luminance" maskUnits="userSpaceOnUse" x="1430" y="169" width="20" height="20">
<path d="M1449.68 169.624H1430.4V188.947H1449.68V169.624Z" fill="white"/>
</mask>
<g mask="url(#mask58_506_4354)">
<path d="M1449.6 179.248C1449.6 184.586 1445.25 188.947 1440 188.947C1434.75 188.947 1430.4 184.586 1430.4 179.248C1430.4 173.91 1434.75 169.624 1440 169.624C1445.25 169.624 1449.6 173.985 1449.6 179.248Z" fill="white"/>
</g>
</g>
<g opacity="0.5">
<path d="M1365.82 266.692C1365.82 272.03 1361.48 276.391 1356.23 276.391C1350.98 276.391 1346.62 272.03 1346.62 266.692C1346.62 261.353 1350.98 257.068 1356.23 257.068C1361.48 257.068 1365.82 261.353 1365.82 266.692Z" fill="white"/>
</g>
<g opacity="0.5">
<mask id="mask59_506_4354" style="mask-type:luminance" maskUnits="userSpaceOnUse" x="1197" y="308" width="21" height="20">
<path d="M1217.18 308.12H1197.9V327.444H1217.18V308.12Z" fill="white"/>
</mask>
<g mask="url(#mask59_506_4354)">
<path d="M1217.17 317.819C1217.17 323.158 1212.82 327.519 1207.57 327.519C1202.32 327.519 1197.97 323.158 1197.97 317.819C1197.97 312.481 1202.32 308.195 1207.57 308.195C1212.82 308.195 1217.17 312.481 1217.17 317.819Z" fill="white"/>
</g>
</g>
<g opacity="0.5">
<mask id="mask60_506_4354" style="mask-type:luminance" maskUnits="userSpaceOnUse" x="1191" y="294" width="21" height="21">
<path d="M1211.1 294.962H1191.82V314.286H1211.1V294.962Z" fill="white"/>
</mask>
<g mask="url(#mask60_506_4354)">
<path d="M1211.1 304.586C1211.1 309.925 1206.75 314.286 1201.5 314.286C1196.25 314.286 1191.9 309.925 1191.9 304.586C1191.9 299.248 1196.25 294.962 1201.5 294.962C1206.75 294.962 1211.1 299.323 1211.1 304.586Z" fill="white"/>
</g>
</g>
<g opacity="0.5">
<mask id="mask61_506_4354" style="mask-type:luminance" maskUnits="userSpaceOnUse" x="1182" y="285" width="20" height="20">
<path d="M1201.43 285.338H1182.15V304.662H1201.43V285.338Z" fill="white"/>
</mask>
<g mask="url(#mask61_506_4354)">
<path d="M1201.42 294.962C1201.42 300.301 1197.07 304.662 1191.82 304.662C1186.57 304.662 1182.22 300.301 1182.22 294.962C1182.22 289.624 1186.57 285.338 1191.82 285.338C1197.07 285.338 1201.42 289.624 1201.42 294.962Z" fill="white"/>
</g>
</g>
<path d="M1446.23 274.662C1440.75 255.414 1423.05 241.353 1402.05 241.353C1381.05 241.353 1364.55 254.586 1358.48 272.857C1353.83 269.023 1347.9 266.767 1341.45 266.767C1332 266.767 1323.68 271.729 1318.95 279.173C1312.35 275.414 1304.7 273.308 1296.53 273.308C1274.1 273.308 1255.43 289.398 1251.38 310.752C1246.65 309.098 1241.63 308.195 1236.38 308.195C1222.2 308.195 1209.53 314.662 1201.05 324.737C1196.4 316.992 1187.85 311.805 1178.18 311.805C1173.68 311.805 1169.4 312.932 1165.73 314.887C1157.33 304.887 1144.73 298.496 1130.63 298.496C1113 298.496 1097.78 308.421 1090.05 323.008C1082.03 316.09 1071.6 311.955 1060.2 311.955C1058.25 311.955 1056.38 312.105 1054.5 312.331C1050.53 274.06 1018.2 244.211 978.976 244.211C939.751 244.211 908.701 272.857 903.751 310.075C895.426 301.805 884.026 296.692 871.351 296.692C861.301 296.692 851.926 300 844.351 305.489C830.551 286.09 807.976 273.459 782.401 273.459C775.051 273.459 768.001 274.511 761.251 276.466C757.501 271.955 752.326 268.647 746.401 267.368C742.351 257.744 732.826 250.977 721.801 250.977C713.476 250.977 706.051 254.812 701.176 260.752C689.851 240.902 668.476 227.519 644.026 227.519C619.576 227.519 598.426 240.752 587.026 260.526C577.726 251.429 565.051 245.789 551.026 245.789C535.501 245.789 521.626 252.632 512.176 263.534C505.726 260.602 498.601 259.023 491.026 259.023C468.526 259.023 449.326 273.534 442.351 293.759C441.451 293.684 440.476 293.609 439.501 293.609C431.926 293.609 425.101 296.767 420.301 301.805C411.601 295.188 400.801 291.203 389.026 291.203C387.226 291.203 385.501 291.278 383.776 291.504C377.626 275.789 362.401 264.662 344.551 264.662C326.701 264.662 310.501 276.541 304.726 293.008C299.251 290.451 293.176 288.947 286.726 288.947C280.276 288.947 274.426 290.376 269.026 292.857C262.276 271.053 241.951 255.263 218.026 255.263C191.701 255.263 169.801 274.361 165.451 299.549C159.601 297.368 153.376 296.165 146.776 296.165C132.676 296.165 119.851 301.654 110.251 310.602C104.326 287.519 83.4008 270.526 58.5758 270.526C43.8008 270.526 30.3758 276.541 20.7008 286.316C13.2758 265.714 -6.44922 251.053 -29.5492 251.053C-59.0242 251.053 -82.9492 275.038 -82.9492 304.586C-82.9492 334.135 -59.0242 358.12 -29.5492 358.12C-18.6742 358.12 -8.54922 354.812 -0.149216 349.248V380.15H1439.85V366.466C1465.2 366.466 1485.75 345.865 1485.75 320.451C1485.9 296.992 1468.65 277.744 1446.23 274.662Z" fill="white"/>
</g>
</svg>
