<svg width="500" height="501" viewBox="0 0 500 501" fill="none" xmlns="http://www.w3.org/2000/svg">
<path fill-rule="evenodd" clip-rule="evenodd" d="M267.857 0.505463H232.143V158.638L172.905 12.0205L139.792 25.398L200.562 175.815L85.85 61.103L60.6 86.3555L170.548 196.305L28.0625 134.05L13.7625 166.775L164.53 232.65H0V268.363H164.525L13.7625 334.233L28.0625 366.96L170.545 304.708L60.595 414.655L85.85 439.908L200.562 325.195L139.792 475.613L172.905 488.99L232.143 342.373V500.505H267.857V342.373L327.095 488.99L360.207 475.613L299.438 325.195L414.15 439.908L439.403 414.655L329.455 304.708L471.94 366.96L486.237 334.233L335.475 268.363H500V232.648H335.472L486.237 166.778L471.94 134.053L329.455 196.303L439.403 86.3555L414.15 61.1005L299.438 175.815L360.207 25.398L327.095 12.0205L267.857 158.638V0.505463Z" fill="#272FE7"/>
</svg>
