<svg width="957" height="1000" viewBox="0 0 957 1000" fill="none" xmlns="http://www.w3.org/2000/svg">
<path opacity="0.2" d="M409.986 270.099L487.12 7.61631L555.048 272.624L555.802 275.565L558.207 273.711L774.894 106.705L674.085 361.03L672.966 363.852L676.001 363.766L949.466 356.021L718.418 502.516L715.854 504.142L718.359 505.856L944.155 660.33L671.124 643.042L668.094 642.85L669.114 645.71L760.991 903.396L550.264 728.929L547.926 726.993L547.07 729.905L469.933 992.384L402.002 727.372L401.248 724.431L398.843 726.284L182.16 893.295L282.972 638.967L284.091 636.145L281.056 636.231L7.5865 643.979L238.633 497.48L241.196 495.854L238.691 494.14L12.8981 339.67L285.932 356.962L288.962 357.154L287.942 354.294L196.067 96.6009L406.792 271.075L409.13 273.011L409.986 270.099Z" stroke="white" stroke-width="4"/>
</svg>
