<svg width="471" height="494" viewBox="0 0 471 494" fill="none" xmlns="http://www.w3.org/2000/svg">
<path d="M169.483 167.276C179.828 156.931 139.311 0.034668 139.311 0.034668L185 100.897C215.173 162.104 235.862 152.621 251.38 108.655L283.276 25.0347L276.38 109.517C273.793 143.138 283.276 163.828 324.656 119L400.518 45.7243L340.173 137.104C326.38 162.104 301.38 201.759 383.276 185.379L470.345 174.173L392.759 211.242C345.345 225.035 331.552 246.586 377.242 263.828L459.138 306.069L366.897 294C322.931 286.242 348.793 308.655 399.655 362.966L462.587 431.069L373.793 365.552C309.138 311.242 278.104 307.793 314.311 392.276L340.173 483.655L294.483 406.069C270.345 365.552 249.656 316.414 231.552 395.724L204.828 494L213.449 362.104C216.897 328.483 197.931 329.345 175.518 353.483L98.7934 422.448L149.656 344.862C186.724 288.828 147.069 294.862 89.3107 303.483L0.517578 313.828L75.5176 285.379C141.035 263.828 142.759 252.621 111.724 235.379L22.9314 200.035L89.3107 206.069C122.931 208.655 162.587 214.69 103.966 156.069L7.41413 60.3795C7.41413 60.3795 153.104 183.655 169.483 167.276Z" fill="#FFA0D6"/>
</svg>
